eighteen.ufo
<glyph name="exclam" format="1">
  <advance width="372"/>
  <unicode hex="0021"/>
  <outline>
    <contour>
      <point x="231" y="672" type="line"/>
      <point x="141" y="672" type="line"/>
      <point x="141" y="196" type="line"/>
      <point x="231" y="196" type="line"/>
    </contour>
    <contour>
      <point x="236" y="100" type="line"/>
      <point x="136" y="100" type="line"/>
      <point x="136" y="0" type="line"/>
      <point x="236" y="0" type="line"/>
    </contour>
  </outline>
</glyph>
<glyph name="quotedbl" format="1">
  <advance width="435"/>
  <unicode hex="0022"/>
  <outline>
    <contour>
      <point x="164" y="471" type="line"/>
      <point x="183" y="720" type="line"/>
      <point x="84" y="720" type="line"/>
      <point x="103" y="471" type="line"/>
    </contour>
    <contour>
      <point x="332" y="471" type="line"/>
      <point x="351" y="720" type="line"/>
      <point x="252" y="720" type="line"/>
      <point x="271" y="471" type="line"/>
    </contour>
  </outline>
</glyph>
<glyph name="quotesingle" format="1">
  <advance width="267"/>
  <unicode hex="0027"/>
  <outline>
    <contour>
      <point x="164" y="471" type="line"/>
      <point x="183" y="720" type="line"/>
      <point x="84" y="720" type="line"/>
      <point x="103" y="471" type="line"/>
    </contour>
  </outline>
</glyph>
<glyph name="comma" format="1">
  <advance width="294"/>
  <unicode hex="002C"/>
  <outline>
    <contour>
      <point x="42" y="-129" type="line"/>
      <point x="111" y="-129" type="line"/>
      <point x="228" y="123" type="line"/>
      <point x="123" y="123" type="line"/>
    </contour>
  </outline>
</glyph>
<glyph name="hyphen" format="1">
  <advance width="354"/>
  <unicode hex="002D"/>
  <outline>
    <contour>
      <point x="48" y="222" type="line"/>
      <point x="306" y="222" type="line"/>
      <point x="306" y="303" type="line"/>
      <point x="48" y="303" type="line"/>
    </contour>
  </outline>
</glyph>
<glyph name="period" format="1">
  <advance width="291"/>
  <unicode hex="002E"/>
  <outline>
    <contour>
      <point x="90" y="0" type="line"/>
      <point x="198" y="0" type="line"/>
      <point x="198" y="111" type="line"/>
      <point x="90" y="111" type="line"/>
    </contour>
  </outline>
</glyph>
<glyph name="colon" format="1">
  <advance width="387"/>
  <unicode hex="003A"/>
  <outline>
    <contour>
      <point x="156" y="0" type="line"/>
      <point x="264" y="0" type="line"/>
      <point x="264" y="111" type="line"/>
      <point x="156" y="111" type="line"/>
    </contour>
    <contour>
      <point x="156" y="327" type="line"/>
      <point x="264" y="327" type="line"/>
      <point x="264" y="438" type="line"/>
      <point x="156" y="438" type="line"/>
    </contour>
  </outline>
</glyph>
<glyph name="semicolon" format="1">
  <advance width="378"/>
  <unicode hex="003B"/>
  <outline>
    <contour>
      <point x="144" y="327" type="line"/>
      <point x="252" y="327" type="line"/>
      <point x="252" y="438" type="line"/>
      <point x="144" y="438" type="line"/>
    </contour>
    <contour>
      <point x="75" y="-129" type="line"/>
      <point x="144" y="-129" type="line"/>
      <point x="261" y="123" type="line"/>
      <point x="156" y="123" type="line"/>
    </contour>
  </outline>
</glyph>
<glyph name="A" format="1">
  <advance width="651"/>
  <unicode hex="0041"/>
  <outline>
    <contour>
      <point x="375" y="672" type="line"/>
      <point x="288" y="672" type="line"/>
      <point x="525" y="0" type="line"/>
      <point x="621" y="0" type="line"/>
    </contour>
    <contour>
      <point x="288" y="672" type="line"/>
      <point x="30" y="0" type="line"/>
      <point x="123" y="0" type="line"/>
      <point x="366" y="672" type="line"/>
    </contour>
    <contour>
      <point x="153" y="209" type="line"/>
      <point x="481" y="209" type="line"/>
      <point x="481" y="287" type="line"/>
      <point x="153" y="287" type="line"/>
    </contour>
  </outline>
</glyph>
<glyph name="B" format="1">
  <advance width="582"/>
  <unicode hex="0042"/>
  <outline>
    <contour>
      <point x="90" y="0" type="line"/>
      <point x="180" y="0" type="line"/>
      <point x="180" y="672" type="line"/>
      <point x="90" y="672" type="line"/>
    </contour>
    <contour>
      <point x="243" y="592" type="line"/>
      <point x="342" y="592"/>
      <point x="386" y="561"/>
      <point x="386" y="501" type="curve" smooth="yes"/>
      <point x="386" y="423"/>
      <point x="321" y="390"/>
      <point x="240" y="390" type="curve"/>
      <point x="147" y="390" type="line"/>
      <point x="147" y="336" type="line"/>
      <point x="216" y="336" type="line"/>
      <point x="369" y="336"/>
      <point x="480" y="396"/>
      <point x="480" y="519" type="curve"/>
      <point x="480" y="612"/>
      <point x="420" y="672"/>
      <point x="261" y="672" type="curve"/>
      <point x="147" y="672" type="line"/>
      <point x="147" y="592" type="line"/>
    </contour>
    <contour>
      <point x="243" y="318" type="line"/>
      <point x="369" y="318"/>
      <point x="430" y="276"/>
      <point x="430" y="186" type="curve" smooth="yes"/>
      <point x="430" y="126"/>
      <point x="369" y="80"/>
      <point x="264" y="80" type="curve"/>
      <point x="147" y="80" type="line"/>
      <point x="147" y="0" type="line"/>
      <point x="225" y="0" type="line"/>
      <point x="411" y="0"/>
      <point x="525" y="66"/>
      <point x="525" y="198" type="curve"/>
      <point x="525" y="315"/>
      <point x="426" y="378"/>
      <point x="252" y="378" type="curve"/>
      <point x="147" y="378" type="line"/>
      <point x="147" y="318" type="line"/>
    </contour>
  </outline>
</glyph>
<glyph name="C" format="1">
  <advance width="672"/>
  <unicode hex="0043"/>
  <outline>
    <contour>
      <point x="612" y="114" type="line"/>
      <point x="543" y="84"/>
      <point x="483" y="72"/>
      <point x="405" y="72" type="curve" smooth="yes"/>
      <point x="252" y="72"/>
      <point x="156" y="192"/>
      <point x="156" y="339" type="curve" smooth="yes"/>
      <point x="156" y="486"/>
      <point x="255" y="600"/>
      <point x="417" y="600" type="curve"/>
      <point x="495" y="600"/>
      <point x="546" y="589"/>
      <point x="612" y="558" type="curve"/>
      <point x="612" y="645" type="line"/>
      <point x="548" y="670"/>
      <point x="492" y="681"/>
      <point x="417" y="681" type="curve"/>
      <point x="210" y="681"/>
      <point x="60" y="520"/>
      <point x="60" y="325" type="curve"/>
      <point x="60" y="133"/>
      <point x="195" y="-9"/>
      <point x="402" y="-9" type="curve"/>
      <point x="489" y="-9"/>
      <point x="546" y="3"/>
      <point x="612" y="27" type="curve"/>
    </contour>
  </outline>
</glyph>
<glyph name="D" format="1">
  <advance width="729"/>
  <unicode hex="0044"/>
  <outline>
    <contour>
      <point x="285" y="591" type="line"/>
      <point x="489" y="591"/>
      <point x="576" y="510"/>
      <point x="576" y="339" type="curve" smooth="yes"/>
      <point x="576" y="195"/>
      <point x="474" y="81"/>
      <point x="270" y="81" type="curve"/>
      <point x="147" y="81" type="line"/>
      <point x="147" y="0" type="line"/>
      <point x="258" y="0" type="line"/>
      <point x="531" y="0"/>
      <point x="672" y="147"/>
      <point x="672" y="357" type="curve"/>
      <point x="672" y="546"/>
      <point x="546" y="672"/>
      <point x="291" y="672" type="curve"/>
      <point x="147" y="672" type="line"/>
      <point x="147" y="591" type="line"/>
    </contour>
    <contour>
      <point x="90" y="0" type="line"/>
      <point x="180" y="0" type="line"/>
      <point x="180" y="672" type="line"/>
      <point x="90" y="672" type="line"/>
    </contour>
  </outline>
</glyph>
<glyph name="E" format="1">
  <advance width="543"/>
  <unicode hex="0045"/>
  <outline>
    <contour>
      <point x="90" y="0" type="line"/>
      <point x="180" y="0" type="line"/>
      <point x="180" y="672" type="line"/>
      <point x="90" y="672" type="line"/>
    </contour>
    <contour>
      <point x="90" y="0" type="line"/>
      <point x="483" y="0" type="line"/>
      <point x="483" y="81" type="line"/>
      <point x="90" y="81" type="line"/>
    </contour>
    <contour>
      <point x="90" y="591" type="line"/>
      <point x="468" y="591" type="line"/>
      <point x="468" y="672" type="line"/>
      <point x="90" y="672" type="line"/>
    </contour>
    <contour>
      <point x="90" y="309" type="line"/>
      <point x="423" y="309" type="line"/>
      <point x="423" y="387" type="line"/>
      <point x="90" y="387" type="line"/>
    </contour>
  </outline>
</glyph>
<glyph name="F" format="1">
  <advance width="516"/>
  <unicode hex="0046"/>
  <outline>
    <contour>
      <point x="90" y="0" type="line"/>
      <point x="180" y="0" type="line"/>
      <point x="180" y="672" type="line"/>
      <point x="90" y="672" type="line"/>
    </contour>
    <contour>
      <point x="90" y="591" type="line"/>
      <point x="465" y="591" type="line"/>
      <point x="465" y="672" type="line"/>
      <point x="90" y="672" type="line"/>
    </contour>
    <contour>
      <point x="90" y="300" type="line"/>
      <point x="432" y="300" type="line"/>
      <point x="432" y="378" type="line"/>
      <point x="90" y="378" type="line"/>
    </contour>
  </outline>
</glyph>
<glyph name="G" format="1">
  <advance width="729"/>
  <unicode hex="0047"/>
  <outline>
    <contour>
      <point x="558" y="60" type="line"/>
      <point x="648" y="27" type="line"/>
      <point x="648" y="312" type="line"/>
      <point x="558" y="312" type="line"/>
    </contour>
    <contour>
      <point x="648" y="111" type="line"/>
      <point x="575" y="83"/>
      <point x="511" y="72"/>
      <point x="429" y="72" type="curve" smooth="yes"/>
      <point x="264" y="72"/>
      <point x="156" y="189"/>
      <point x="156" y="339" type="curve" smooth="yes"/>
      <point x="156" y="492"/>
      <point x="264" y="600"/>
      <point x="441" y="600" type="curve"/>
      <point x="523" y="600"/>
      <point x="578" y="586"/>
      <point x="648" y="555" type="curve"/>
      <point x="648" y="642" type="line"/>
      <point x="580" y="667"/>
      <point x="520" y="681"/>
      <point x="441" y="681" type="curve"/>
      <point x="219" y="681"/>
      <point x="60" y="526"/>
      <point x="60" y="325" type="curve"/>
      <point x="60" y="130"/>
      <point x="207" y="-9"/>
      <point x="426" y="-9" type="curve"/>
      <point x="517" y="-9"/>
      <point x="578" y="0"/>
      <point x="648" y="21" type="curve"/>
    </contour>
  </outline>
</glyph>
<glyph name="H" format="1">
  <advance width="711"/>
  <unicode hex="0048"/>
  <outline>
    <contour>
      <point x="90" y="0" type="line"/>
      <point x="180" y="0" type="line"/>
      <point x="180" y="672" type="line"/>
      <point x="90" y="672" type="line"/>
    </contour>
    <contour>
      <point x="90" y="315" type="line"/>
      <point x="568" y="315" type="line"/>
      <point x="568" y="396" type="line"/>
      <point x="90" y="396" type="line"/>
    </contour>
    <contour>
      <point x="531" y="0" type="line"/>
      <point x="621" y="0" type="line"/>
      <point x="621" y="672" type="line"/>
      <point x="531" y="672" type="line"/>
    </contour>
  </outline>
</glyph>
<glyph name="I" format="1">
  <advance width="270"/>
  <unicode hex="0049"/>
  <outline>
    <contour>
      <point x="90" y="0" type="line"/>
      <point x="180" y="0" type="line"/>
      <point x="180" y="672" type="line"/>
      <point x="90" y="672" type="line"/>
    </contour>
  </outline>
</glyph>
<glyph name="J" format="1">
  <advance width="270"/>
  <unicode hex="004A"/>
  <outline>
    <contour>
      <point x="90" y="147" type="line"/>
      <point x="90" y="21"/>
      <point x="69" y="-24"/>
      <point x="-9" y="-129" type="curve"/>
      <point x="63" y="-174" type="line"/>
      <point x="147" y="-66"/>
      <point x="180" y="6"/>
      <point x="180" y="141" type="curve"/>
      <point x="180" y="672" type="line"/>
      <point x="90" y="672" type="line"/>
    </contour>
  </outline>
</glyph>
<glyph name="K" format="1">
  <advance width="618"/>
  <unicode hex="004B"/>
  <outline>
    <contour>
      <point x="90" y="0" type="line"/>
      <point x="180" y="0" type="line"/>
      <point x="180" y="672" type="line"/>
      <point x="90" y="672" type="line"/>
    </contour>
    <contour>
      <point x="174" y="330" type="line"/>
      <point x="283" y="330" type="line"/>
      <point x="591" y="672" type="line"/>
      <point x="476" y="672" type="line"/>
    </contour>
    <contour>
      <point x="99" y="306" type="line"/>
      <point x="240" y="306" type="line"/>
      <point x="240" y="381" type="line"/>
      <point x="99" y="381" type="line"/>
    </contour>
    <contour>
      <point x="186" y="342" type="line"/>
      <point x="477" y="0" type="line"/>
      <point x="600" y="0" type="line"/>
      <point x="289" y="354" type="line"/>
    </contour>
  </outline>
</glyph>
<glyph name="L" format="1">
  <advance width="501"/>
  <unicode hex="004C"/>
  <outline>
    <contour>
      <point x="90" y="0" type="line"/>
      <point x="180" y="0" type="line"/>
      <point x="180" y="672" type="line"/>
      <point x="90" y="672" type="line"/>
    </contour>
    <contour>
      <point x="90" y="0" type="line"/>
      <point x="468" y="0" type="line"/>
      <point x="468" y="81" type="line"/>
      <point x="90" y="81" type="line"/>
    </contour>
  </outline>
</glyph>
<glyph name="M" format="1">
  <advance width="891"/>
  <unicode hex="004D"/>
  <outline>
    <contour>
      <point x="90" y="0" type="line"/>
      <point x="174" y="0" type="line"/>
      <point x="174" y="672" type="line"/>
      <point x="90" y="672" type="line"/>
    </contour>
    <contour>
      <point x="714" y="0" type="line"/>
      <point x="801" y="0" type="line"/>
      <point x="801" y="672" type="line"/>
      <point x="714" y="672" type="line"/>
    </contour>
    <contour>
      <point x="411" y="0" type="line"/>
      <point x="471" y="0" type="line"/>
      <point x="473.0" y="63.0" type="line"/>
      <point x="204.0" y="672.0" type="line"/>
      <point x="117" y="672" type="line"/>
    </contour>
    <contour>
      <point x="480.0" y="0.0" type="line"/>
      <point x="774.0" y="672.0" type="line"/>
      <point x="681.0" y="672.0" type="line"/>
      <point x="422.0" y="60.0" type="line"/>
      <point x="426" y="0" type="line"/>
    </contour>
  </outline>
</glyph>
<glyph name="N" format="1">
  <advance width="762"/>
  <unicode hex="004E"/>
  <outline>
    <contour>
      <point x="90" y="0" type="line"/>
      <point x="177" y="0" type="line"/>
      <point x="177" y="610" type="line"/>
      <point x="174" y="672" type="line"/>
      <point x="90" y="672" type="line"/>
    </contour>
    <contour>
      <point x="588" y="0" type="line"/>
      <point x="672" y="0" type="line"/>
      <point x="672" y="672" type="line"/>
      <point x="585" y="672" type="line"/>
      <point x="585" y="63" type="line"/>
    </contour>
    <contour>
      <point x="180" y="672" type="line"/>
      <point x="169" y="672" type="line"/>
      <point x="141" y="578" type="line"/>
      <point x="582" y="0" type="line"/>
      <point x="593" y="0" type="line"/>
      <point x="624" y="91" type="line"/>
    </contour>
  </outline>
</glyph>
<glyph name="O" format="1">
  <advance width="786"/>
  <unicode hex="004F"/>
  <outline>
    <contour>
      <point x="390" y="-12" type="curve"/>
      <point x="600" y="-12"/>
      <point x="726" y="153"/>
      <point x="726" y="345" type="curve"/>
      <point x="726" y="534"/>
      <point x="603" y="684"/>
      <point x="396" y="684" type="curve"/>
      <point x="186" y="684"/>
      <point x="60" y="519"/>
      <point x="60" y="327" type="curve"/>
      <point x="60" y="138"/>
      <point x="183" y="-12"/>
    </contour>
    <contour>
      <point x="393" y="69" type="curve" smooth="yes"/>
      <point x="240" y="69"/>
      <point x="156" y="189"/>
      <point x="156" y="336" type="curve" smooth="yes"/>
      <point x="156" y="483"/>
      <point x="240" y="603"/>
      <point x="393" y="603" type="curve" smooth="yes"/>
      <point x="546" y="603"/>
      <point x="630" y="483"/>
      <point x="630" y="336" type="curve" smooth="yes"/>
      <point x="630" y="189"/>
      <point x="546" y="69"/>
    </contour>
  </outline>
</glyph>
<glyph name="P" format="1">
  <advance width="552"/>
  <unicode hex="0050"/>
  <outline>
    <contour>
      <point x="90" y="0" type="line"/>
      <point x="180" y="0" type="line"/>
      <point x="180" y="672" type="line"/>
      <point x="90" y="672" type="line"/>
    </contour>
    <contour>
      <point x="246" y="592" type="line"/>
      <point x="345" y="592"/>
      <point x="406" y="549"/>
      <point x="406" y="477" type="curve" smooth="yes"/>
      <point x="406" y="387"/>
      <point x="342" y="339"/>
      <point x="252" y="339" type="curve"/>
      <point x="147" y="339" type="line"/>
      <point x="147" y="261" type="line"/>
      <point x="240" y="261" type="line"/>
      <point x="399" y="261"/>
      <point x="501" y="345"/>
      <point x="501" y="483" type="curve"/>
      <point x="501" y="591"/>
      <point x="432" y="672"/>
      <point x="264" y="672" type="curve"/>
      <point x="147" y="672" type="line"/>
      <point x="147" y="592" type="line"/>
    </contour>
  </outline>
</glyph>
<glyph name="Q" format="1">
  <advance width="786"/>
  <unicode hex="0051"/>
  <outline>
    <contour>
      <point x="390" y="-12" type="curve"/>
      <point x="600" y="-12"/>
      <point x="726" y="153"/>
      <point x="726" y="345" type="curve"/>
      <point x="726" y="534"/>
      <point x="603" y="684"/>
      <point x="396" y="684" type="curve"/>
      <point x="186" y="684"/>
      <point x="60" y="519"/>
      <point x="60" y="327" type="curve"/>
      <point x="60" y="138"/>
      <point x="183" y="-12"/>
    </contour>
    <contour>
      <point x="393" y="69" type="curve" smooth="yes"/>
      <point x="240" y="69"/>
      <point x="156" y="189"/>
      <point x="156" y="336" type="curve" smooth="yes"/>
      <point x="156" y="483"/>
      <point x="240" y="603"/>
      <point x="393" y="603" type="curve" smooth="yes"/>
      <point x="546" y="603"/>
      <point x="630" y="483"/>
      <point x="630" y="336" type="curve" smooth="yes"/>
      <point x="630" y="189"/>
      <point x="546" y="69"/>
    </contour>
    <contour>
      <point x="447" y="42" type="curve"/>
      <point x="336" y="19" type="line"/>
      <point x="441" y="-71"/>
      <point x="540" y="-123"/>
      <point x="666" y="-180" type="curve"/>
      <point x="708" y="-120" type="line"/>
      <point x="582" y="-54"/>
      <point x="528" y="-18"/>
    </contour>
  </outline>
</glyph>
<glyph name="R" format="1">
  <advance width="597"/>
  <unicode hex="0052"/>
  <outline>
    <contour>
      <point x="90" y="0" type="line"/>
      <point x="180" y="0" type="line"/>
      <point x="180" y="672" type="line"/>
      <point x="90" y="672" type="line"/>
    </contour>
    <contour>
      <point x="255" y="324" type="line"/>
      <point x="465" y="0" type="line"/>
      <point x="576" y="0" type="line"/>
      <point x="357" y="324" type="line"/>
    </contour>
    <contour>
      <point x="243" y="592" type="line"/>
      <point x="342" y="592"/>
      <point x="398" y="561"/>
      <point x="398" y="483" type="curve" smooth="yes"/>
      <point x="398" y="390"/>
      <point x="339" y="345"/>
      <point x="228" y="345" type="curve"/>
      <point x="147" y="345" type="line"/>
      <point x="147.0" y="273.0" type="line"/>
      <point x="216.0" y="273.0" type="line"/>
      <point x="315" y="273" type="line"/>
      <point x="360" y="297" type="line"/>
      <point x="441" y="339"/>
      <point x="492" y="399"/>
      <point x="492" y="495" type="curve"/>
      <point x="492" y="597"/>
      <point x="426.0" y="672.0"/>
      <point x="261.0" y="672.0" type="curve"/>
      <point x="147.0" y="672.0" type="line"/>
      <point x="147" y="592" type="line"/>
    </contour>
  </outline>
</glyph>
<glyph name="S" format="1">
  <advance width="507"/>
  <unicode hex="0053"/>
  <outline>
    <contour>
      <point x="280" y="382" type="curve" smooth="yes"/>
      <point x="181" y="426"/>
      <point x="155" y="452"/>
      <point x="155" y="513" type="curve"/>
      <point x="155" y="561"/>
      <point x="210" y="601"/>
      <point x="288" y="601" type="curve"/>
      <point x="345" y="601"/>
      <point x="390" y="591"/>
      <point x="432" y="570" type="curve"/>
      <point x="432" y="654" type="line"/>
      <point x="389" y="672"/>
      <point x="342" y="681"/>
      <point x="285" y="681" type="curve"/>
      <point x="144" y="681"/>
      <point x="60" y="603"/>
      <point x="60" y="498" type="curve"/>
      <point x="60" y="396"/>
      <point x="138" y="349"/>
      <point x="242" y="302" type="curve" smooth="yes"/>
      <point x="341" y="257"/>
      <point x="361" y="229"/>
      <point x="361" y="171" type="curve"/>
      <point x="361" y="111"/>
      <point x="306" y="71"/>
      <point x="222" y="71" type="curve"/>
      <point x="156" y="71"/>
      <point x="111" y="84"/>
      <point x="60" y="120" type="curve"/>
      <point x="60" y="30" type="line"/>
      <point x="111" y="0"/>
      <point x="165" y="-9"/>
      <point x="228" y="-9" type="curve"/>
      <point x="354" y="-9"/>
      <point x="456" y="60"/>
      <point x="456" y="186" type="curve"/>
      <point x="456" y="282"/>
      <point x="397" y="330"/>
    </contour>
  </outline>
</glyph>
<glyph name="T" format="1">
  <advance width="594"/>
  <unicode hex="0054"/>
  <outline>
    <contour>
      <point x="252" y="0" type="line"/>
      <point x="342" y="0" type="line"/>
      <point x="342" y="672" type="line"/>
      <point x="252" y="672" type="line"/>
    </contour>
    <contour>
      <point x="30" y="591" type="line"/>
      <point x="564" y="591" type="line"/>
      <point x="564" y="672" type="line"/>
      <point x="30" y="672" type="line"/>
    </contour>
  </outline>
</glyph>
<glyph name="U" format="1">
  <advance width="705"/>
  <unicode hex="0055"/>
  <outline>
    <contour>
      <point x="84" y="282" type="line"/>
      <point x="84" y="84"/>
      <point x="165" y="-12"/>
      <point x="351" y="-12" type="curve"/>
      <point x="546" y="-12"/>
      <point x="621" y="96"/>
      <point x="621" y="315" type="curve"/>
      <point x="621" y="672" type="line"/>
      <point x="533" y="672" type="line"/>
      <point x="533" y="306" type="line"/>
      <point x="533" y="165"/>
      <point x="504" y="69"/>
      <point x="354" y="69" type="curve" smooth="yes"/>
      <point x="204" y="69"/>
      <point x="174" y="165"/>
      <point x="174" y="306" type="curve"/>
      <point x="174" y="672" type="line"/>
      <point x="84" y="672" type="line"/>
    </contour>
  </outline>
</glyph>
<glyph name="V" format="1">
  <advance width="639"/>
  <unicode hex="0056"/>
  <outline>
    <contour>
      <point x="273" y="0" type="line"/>
      <point x="362" y="0" type="line"/>
      <point x="116" y="672" type="line"/>
      <point x="15" y="672" type="line"/>
    </contour>
    <contour>
      <point x="363" y="0" type="line"/>
      <point x="624" y="672" type="line"/>
      <point x="522" y="672" type="line"/>
      <point x="276" y="0" type="line"/>
    </contour>
  </outline>
</glyph>
<glyph name="W" format="1">
  <advance width="981"/>
  <unicode hex="0057"/>
  <outline>
    <contour>
      <point x="225" y="0" type="line"/>
      <point x="308" y="0" type="line"/>
      <point x="113" y="672" type="line"/>
      <point x="15" y="672" type="line"/>
    </contour>
    <contour>
      <point x="312" y="0" type="line"/>
      <point x="515" y="590" type="line"/>
      <point x="483" y="672" type="line"/>
      <point x="452" y="672" type="line"/>
      <point x="233" y="0" type="line"/>
    </contour>
    <contour>
      <point x="659" y="0" type="line"/>
      <point x="744" y="0" type="line"/>
      <point x="519" y="672" type="line"/>
      <point x="485" y="672" type="line"/>
      <point x="454" y="589" type="line"/>
    </contour>
    <contour>
      <point x="756" y="0" type="line"/>
      <point x="966" y="672" type="line"/>
      <point x="868" y="672" type="line"/>
      <point x="670" y="0" type="line"/>
    </contour>
  </outline>
</glyph>
<glyph name="X" format="1">
  <advance width="603"/>
  <unicode hex="0058"/>
  <outline>
    <contour>
      <point x="474" y="0" type="line"/>
      <point x="579" y="0" type="line"/>
      <point x="141" y="672" type="line"/>
      <point x="36" y="672" type="line"/>
    </contour>
    <contour>
      <point x="126" y="0" type="line"/>
      <point x="564" y="672" type="line"/>
      <point x="462" y="672" type="line"/>
      <point x="24" y="0" type="line"/>
    </contour>
  </outline>
</glyph>
<glyph name="Y" format="1">
  <advance width="561.0"/>
  <unicode hex="0059"/>
  <outline>
    <contour>
      <point x="237" y="0" type="line"/>
      <point x="327" y="0" type="line"/>
      <point x="327" y="372" type="line"/>
      <point x="237" y="372" type="line"/>
    </contour>
    <contour>
      <point x="309" y="330" type="line"/>
      <point x="111" y="672" type="line"/>
      <point x="12" y="672" type="line"/>
      <point x="266" y="233" type="line"/>
    </contour>
    <contour>
      <point x="294" y="232" type="line"/>
      <point x="549" y="672" type="line"/>
      <point x="456" y="672" type="line"/>
      <point x="259" y="332" type="line"/>
    </contour>
  </outline>
</glyph>
<glyph name="Z" format="1">
  <advance width="624"/>
  <unicode hex="005A"/>
  <outline>
    <contour>
      <point x="66" y="594" type="line"/>
      <point x="511" y="594" type="line"/>
      <point x="540" y="601" type="line"/>
      <point x="540" y="601" type="line"/>
      <point x="540" y="672" type="line"/>
      <point x="66" y="672" type="line"/>
    </contour>
    <contour>
      <point x="42" y="0" type="line"/>
      <point x="576" y="0" type="line"/>
      <point x="576" y="81" type="line"/>
      <point x="60" y="81" type="line"/>
      <point x="42" y="79" type="line"/>
      <point x="42" y="79" type="line"/>
    </contour>
    <contour>
      <point x="489" y="672" type="line"/>
      <point x="42" y="79" type="line"/>
      <point x="52" y="0" type="line"/>
      <point x="87" y="0" type="line"/>
      <point x="540" y="601" type="line"/>
      <point x="534" y="672" type="line"/>
    </contour>
  </outline>
</glyph>
<glyph name="a" format="1">
  <advance width="498"/>
  <unicode hex="0061"/>
  <outline>
    <contour>
      <point x="271" y="486" type="curve"/>
      <point x="193" y="486"/>
      <point x="132" y="471"/>
      <point x="72" y="447" type="curve"/>
      <point x="72" y="369" type="line"/>
      <point x="120" y="396"/>
      <point x="173" y="414"/>
      <point x="240" y="414" type="curve"/>
      <point x="306" y="414"/>
      <point x="334" y="385"/>
      <point x="334" y="330" type="curve"/>
      <point x="334" y="84" type="line"/>
      <point x="346" y="0" type="line"/>
      <point x="420" y="0" type="line"/>
      <point x="420" y="342" type="line"/>
      <point x="420" y="438"/>
      <point x="364" y="486"/>
    </contour>
    <contour>
      <point x="342" y="105" type="line"/>
      <point x="297" y="78"/>
      <point x="258" y="63"/>
      <point x="216" y="63" type="curve"/>
      <point x="174" y="63"/>
      <point x="135" y="87"/>
      <point x="135" y="129" type="curve"/>
      <point x="135" y="165"/>
      <point x="156" y="186"/>
      <point x="198" y="198" type="curve" smooth="yes"/>
      <point x="336" y="237" type="line"/>
      <point x="336" y="303" type="line"/>
      <point x="159" y="255" type="line" smooth="yes"/>
      <point x="90" y="236"/>
      <point x="54" y="191"/>
      <point x="54" y="120" type="curve"/>
      <point x="54" y="45"/>
      <point x="108" y="-6"/>
      <point x="189" y="-6" type="curve"/>
      <point x="246" y="-6"/>
      <point x="294" y="12"/>
      <point x="342" y="39" type="curve"/>
    </contour>
  </outline>
</glyph>
<glyph name="b" format="1">
  <advance width="564"/>
  <unicode hex="0062"/>
  <outline>
    <contour>
      <point x="87" y="21" type="line"/>
      <point x="138" y="0"/>
      <point x="186" y="-9"/>
      <point x="255" y="-9" type="curve"/>
      <point x="411" y="-9"/>
      <point x="513" y="99"/>
      <point x="513" y="255" type="curve"/>
      <point x="513" y="384"/>
      <point x="435" y="486"/>
      <point x="303" y="486" type="curve"/>
      <point x="228" y="486"/>
      <point x="177" y="471"/>
      <point x="126" y="432" type="curve"/>
      <point x="126" y="357" type="line"/>
      <point x="168" y="396"/>
      <point x="213" y="414"/>
      <point x="273" y="414" type="curve"/>
      <point x="366" y="414"/>
      <point x="420" y="351"/>
      <point x="420" y="240" type="curve" smooth="yes"/>
      <point x="420" y="132"/>
      <point x="360" y="63"/>
      <point x="261" y="63" type="curve"/>
      <point x="222" y="63"/>
      <point x="192" y="69"/>
      <point x="159" y="84" type="curve"/>
    </contour>
    <contour>
      <point x="87" y="21" type="line"/>
      <point x="174" y="21" type="line"/>
      <point x="174" y="720" type="line"/>
      <point x="87" y="720" type="line"/>
    </contour>
  </outline>
</glyph>
<glyph name="c" format="1">
  <advance width="480"/>
  <unicode hex="0063"/>
  <outline>
    <contour>
      <point x="438" y="465" type="line"/>
      <point x="402" y="480"/>
      <point x="363" y="486"/>
      <point x="315" y="486" type="curve"/>
      <point x="153" y="486"/>
      <point x="51" y="387"/>
      <point x="51" y="237" type="curve"/>
      <point x="51" y="102"/>
      <point x="132" y="-6"/>
      <point x="276" y="-6" type="curve"/>
      <point x="342" y="-6"/>
      <point x="390" y="2"/>
      <point x="444" y="21" type="curve"/>
      <point x="444" y="99" type="line"/>
      <point x="400" y="77"/>
      <point x="357" y="66"/>
      <point x="303" y="66" type="curve"/>
      <point x="207" y="66"/>
      <point x="144" y="141"/>
      <point x="144" y="243" type="curve" smooth="yes"/>
      <point x="144" y="354"/>
      <point x="210" y="414"/>
      <point x="309" y="414" type="curve"/>
      <point x="357" y="414"/>
      <point x="396" y="408"/>
      <point x="438" y="390" type="curve"/>
    </contour>
  </outline>
</glyph>
<glyph name="d" format="1">
  <advance width="567"/>
  <unicode hex="0064"/>
  <outline>
    <contour>
      <point x="429" y="459" type="line"/>
      <point x="393" y="480"/>
      <point x="354" y="489"/>
      <point x="306" y="489" type="curve"/>
      <point x="138" y="489"/>
      <point x="51" y="375"/>
      <point x="51" y="222" type="curve"/>
      <point x="51" y="93"/>
      <point x="135" y="-6"/>
      <point x="279" y="-6" type="curve"/>
      <point x="357" y="-6"/>
      <point x="411" y="0"/>
      <point x="480" y="21" type="curve"/>
      <point x="411" y="81" type="line"/>
      <point x="378" y="70"/>
      <point x="344" y="66"/>
      <point x="303" y="66" type="curve"/>
      <point x="198" y="66"/>
      <point x="144" y="129"/>
      <point x="144" y="237" type="curve" smooth="yes"/>
      <point x="144" y="339"/>
      <point x="201" y="417"/>
      <point x="300" y="417" type="curve"/>
      <point x="351" y="417"/>
      <point x="387" y="408"/>
      <point x="429" y="378" type="curve"/>
    </contour>
    <contour>
      <point x="393" y="63" type="line"/>
      <point x="480" y="21" type="line"/>
      <point x="480" y="720" type="line"/>
      <point x="393" y="720" type="line"/>
    </contour>
  </outline>
</glyph>
<glyph name="e" format="1">
  <advance width="510"/>
  <unicode hex="0065"/>
  <outline>
    <contour>
      <point x="459" y="298" type="line"/>
      <point x="459" y="414"/>
      <point x="399" y="492"/>
      <point x="273" y="492" type="curve"/>
      <point x="132" y="492"/>
      <point x="51" y="387"/>
      <point x="51" y="243" type="curve"/>
      <point x="51" y="102"/>
      <point x="126" y="-6"/>
      <point x="273" y="-6" type="curve"/>
      <point x="339" y="-6"/>
      <point x="387" y="0"/>
      <point x="438" y="21" type="curve"/>
      <point x="438" y="99" type="line"/>
      <point x="393" y="75"/>
      <point x="348" y="66"/>
      <point x="294" y="66" type="curve"/>
      <point x="198" y="66"/>
      <point x="138" y="138"/>
      <point x="138" y="249" type="curve"/>
      <point x="138" y="354"/>
      <point x="177" y="423"/>
      <point x="264" y="423" type="curve"/>
      <point x="339" y="423"/>
      <point x="372" y="384"/>
      <point x="372" y="303" type="curve"/>
      <point x="93" y="303" type="line"/>
      <point x="93" y="234" type="line"/>
      <point x="459" y="234" type="line"/>
    </contour>
  </outline>
</glyph>
<glyph name="f" format="1">
  <advance width="339"/>
  <unicode hex="0066"/>
  <outline>
    <contour>
      <point x="183" y="489" type="line"/>
      <point x="183" y="597"/>
      <point x="230" y="656"/>
      <point x="303" y="656" type="curve"/>
      <point x="333" y="656"/>
      <point x="357" y="654"/>
      <point x="377" y="647" type="curve"/>
      <point x="377" y="717" type="line"/>
      <point x="354" y="724"/>
      <point x="330" y="726"/>
      <point x="297" y="726" type="curve"/>
      <point x="168" y="726"/>
      <point x="96" y="639"/>
      <point x="96" y="495" type="curve"/>
      <point x="96" y="0" type="line"/>
      <point x="183" y="0" type="line"/>
    </contour>
    <contour>
      <point x="36" y="411" type="line"/>
      <point x="303" y="411" type="line"/>
      <point x="303" y="480" type="line"/>
      <point x="36" y="480" type="line"/>
    </contour>
  </outline>
</glyph>
<glyph name="g" format="1">
  <advance width="543"/>
  <unicode hex="0067"/>
  <outline>
    <contour>
      <point x="249" y="156" type="curve"/>
      <point x="366" y="156"/>
      <point x="438" y="234"/>
      <point x="438" y="330" type="curve"/>
      <point x="438" y="426"/>
      <point x="369" y="492"/>
      <point x="255" y="492" type="curve"/>
      <point x="138" y="492"/>
      <point x="66" y="414"/>
      <point x="66" y="318" type="curve"/>
      <point x="66" y="222"/>
      <point x="135" y="156"/>
    </contour>
    <contour>
      <point x="252" y="225" type="curve" smooth="yes"/>
      <point x="189" y="225"/>
      <point x="147" y="264"/>
      <point x="147" y="324" type="curve" smooth="yes"/>
      <point x="147" y="384"/>
      <point x="189" y="423"/>
      <point x="252" y="423" type="curve" smooth="yes"/>
      <point x="315" y="423"/>
      <point x="357" y="384"/>
      <point x="357" y="324" type="curve" smooth="yes"/>
      <point x="357" y="264"/>
      <point x="315" y="225"/>
    </contour>
    <contour>
      <point x="309" y="480" type="line"/>
      <point x="387" y="417" type="line"/>
      <point x="498" y="417" type="line"/>
      <point x="498" y="480" type="line"/>
    </contour>
    <contour>
      <point x="210" y="162" type="curve"/>
      <point x="155" y="192" type="line"/>
      <point x="119" y="165"/>
      <point x="96" y="132"/>
      <point x="96" y="87" type="curve"/>
      <point x="96" y="46"/>
      <point x="138" y="15"/>
      <point x="165" y="0" type="curve"/>
      <point x="183" y="-4" type="line"/>
      <point x="345" y="-4" type="line" smooth="yes"/>
      <point x="384" y="-4"/>
      <point x="415" y="-27"/>
      <point x="415" y="-72" type="curve" smooth="yes"/>
      <point x="415" y="-128"/>
      <point x="345" y="-176"/>
      <point x="252" y="-176" type="curve" smooth="yes"/>
      <point x="180" y="-176"/>
      <point x="130" y="-148"/>
      <point x="130" y="-90" type="curve" smooth="yes"/>
      <point x="130" y="-51"/>
      <point x="160" y="-4"/>
      <point x="223" y="-4" type="curve"/>
      <point x="132" y="33" type="line"/>
      <point x="81" y="-3"/>
      <point x="45" y="-42"/>
      <point x="45" y="-102" type="curve" smooth="yes"/>
      <point x="45" y="-191"/>
      <point x="126" y="-246"/>
      <point x="242" y="-246" type="curve" smooth="yes"/>
      <point x="393" y="-246"/>
      <point x="504" y="-171"/>
      <point x="504" y="-60" type="curve" smooth="yes"/>
      <point x="504" y="18"/>
      <point x="444" y="65"/>
      <point x="372" y="65" type="curve" smooth="yes"/>
      <point x="213" y="65" type="line" smooth="yes"/>
      <point x="189" y="65"/>
      <point x="173" y="84"/>
      <point x="173" y="109" type="curve" smooth="yes"/>
      <point x="173" y="129"/>
      <point x="186" y="150"/>
    </contour>
  </outline>
</glyph>
<glyph name="h" format="1">
  <advance width="561"/>
  <unicode hex="0068"/>
  <outline>
    <contour>
      <point x="87" y="0" type="line"/>
      <point x="174" y="0" type="line"/>
      <point x="174" y="720" type="line"/>
      <point x="87" y="720" type="line"/>
    </contour>
    <contour>
      <point x="483" y="0" type="line"/>
      <point x="483" y="327" type="line"/>
      <point x="483" y="432"/>
      <point x="435" y="486"/>
      <point x="336" y="486" type="curve"/>
      <point x="216" y="486"/>
      <point x="162" y="447"/>
      <point x="90" y="363" type="curve"/>
      <point x="159" y="342" type="line"/>
      <point x="198" y="393"/>
      <point x="242" y="414"/>
      <point x="310" y="414" type="curve"/>
      <point x="367" y="414"/>
      <point x="396" y="384"/>
      <point x="396" y="306" type="curve"/>
      <point x="396" y="0" type="line"/>
    </contour>
  </outline>
</glyph>
<glyph name="i" format="1">
  <advance width="261"/>
  <unicode hex="0069"/>
  <outline>
    <contour>
      <point x="87" y="0" type="line"/>
      <point x="174" y="0" type="line"/>
      <point x="174" y="480" type="line"/>
      <point x="87" y="480" type="line"/>
    </contour>
    <contour>
      <point x="84" y="576" type="line"/>
      <point x="177" y="576" type="line"/>
      <point x="177" y="672" type="line"/>
      <point x="84" y="672" type="line"/>
    </contour>
  </outline>
</glyph>
<glyph name="j" format="1">
  <advance width="255"/>
  <unicode hex="006A"/>
  <outline>
    <contour>
      <point x="87" y="147" type="line"/>
      <point x="87" y="18"/>
      <point x="57" y="-82"/>
      <point x="-15" y="-193" type="curve"/>
      <point x="60" y="-234" type="line"/>
      <point x="138" y="-120"/>
      <point x="174" y="3"/>
      <point x="174" y="141" type="curve"/>
      <point x="174" y="480" type="line"/>
      <point x="87" y="480" type="line"/>
    </contour>
    <contour>
      <point x="84" y="576" type="line"/>
      <point x="177" y="576" type="line"/>
      <point x="177" y="672" type="line"/>
      <point x="84" y="672" type="line"/>
    </contour>
  </outline>
</glyph>
<glyph name="k" format="1">
  <advance width="514"/>
  <unicode hex="006B"/>
  <outline>
    <contour>
      <point x="87" y="0" type="line"/>
      <point x="174" y="0" type="line"/>
      <point x="174" y="720" type="line"/>
      <point x="87" y="720" type="line"/>
    </contour>
    <contour>
      <point x="171" y="243" type="line"/>
      <point x="269" y="243" type="line"/>
      <point x="482" y="480" type="line"/>
      <point x="375" y="480" type="line"/>
    </contour>
    <contour>
      <point x="490" y="0" type="line"/>
      <point x="272" y="255" type="line"/>
      <point x="180" y="243" type="line"/>
      <point x="376" y="0" type="line"/>
    </contour>
    <contour>
      <point x="99" y="213" type="line"/>
      <point x="240" y="213" type="line"/>
      <point x="240" y="279" type="line"/>
      <point x="99" y="279" type="line"/>
    </contour>
  </outline>
</glyph>
<glyph name="m" format="1">
  <advance width="852"/>
  <unicode hex="006D"/>
  <outline>
    <contour>
      <point x="87" y="0" type="line"/>
      <point x="174" y="0" type="line"/>
      <point x="174" y="396" type="line"/>
      <point x="162" y="480" type="line"/>
      <point x="87" y="480" type="line"/>
    </contour>
    <contour>
      <point x="474" y="0" type="line"/>
      <point x="474" y="327" type="line"/>
      <point x="474" y="432"/>
      <point x="429" y="486"/>
      <point x="333" y="486" type="curve"/>
      <point x="213" y="486"/>
      <point x="159" y="447"/>
      <point x="87" y="363" type="curve"/>
      <point x="156" y="342" type="line"/>
      <point x="195" y="393"/>
      <point x="239" y="414"/>
      <point x="307" y="414" type="curve"/>
      <point x="361" y="414"/>
      <point x="387" y="384"/>
      <point x="387" y="306" type="curve"/>
      <point x="387" y="0" type="line"/>
    </contour>
    <contour>
      <point x="774" y="0" type="line"/>
      <point x="774" y="327" type="line"/>
      <point x="774" y="432"/>
      <point x="729" y="486"/>
      <point x="633" y="486" type="curve"/>
      <point x="513" y="486"/>
      <point x="459" y="447"/>
      <point x="387" y="363" type="curve"/>
      <point x="456" y="342" type="line"/>
      <point x="495" y="393"/>
      <point x="539" y="414"/>
      <point x="607" y="414" type="curve"/>
      <point x="661" y="414"/>
      <point x="687" y="384"/>
      <point x="687" y="306" type="curve"/>
      <point x="687" y="0" type="line"/>
    </contour>
  </outline>
</glyph>
<glyph name="n" format="1">
  <advance width="558"/>
  <unicode hex="006E"/>
  <outline>
    <contour>
      <point x="87" y="0" type="line"/>
      <point x="174" y="0" type="line"/>
      <point x="174" y="396" type="line"/>
      <point x="162" y="480" type="line"/>
      <point x="87" y="480" type="line"/>
    </contour>
    <contour>
      <point x="480.0" y="0.0" type="line"/>
      <point x="480.0" y="327.0" type="line"/>
      <point x="480.0" y="432.0"/>
      <point x="432.0" y="486.0"/>
      <point x="333.0" y="486.0" type="curve"/>
      <point x="255" y="486"/>
      <point x="205" y="467"/>
      <point x="156" y="431" type="curve"/>
      <point x="156.0" y="342.0" type="line"/>
      <point x="195" y="390"/>
      <point x="239.0" y="414.0"/>
      <point x="307.0" y="414.0" type="curve"/>
      <point x="367" y="414"/>
      <point x="393" y="381"/>
      <point x="393.0" y="306.0" type="curve"/>
      <point x="393.0" y="0.0" type="line"/>
    </contour>
  </outline>
</glyph>
<glyph name="o" format="1">
  <advance width="570"/>
  <unicode hex="006F"/>
  <outline>
    <contour>
      <point x="282" y="-12" type="curve"/>
      <point x="432" y="-12"/>
      <point x="519" y="105"/>
      <point x="519" y="246" type="curve"/>
      <point x="519" y="387"/>
      <point x="435" y="492"/>
      <point x="288" y="492" type="curve"/>
      <point x="138" y="492"/>
      <point x="51" y="375"/>
      <point x="51" y="234" type="curve"/>
      <point x="51" y="93"/>
      <point x="135" y="-12"/>
    </contour>
    <contour>
      <point x="285" y="60" type="curve" smooth="yes"/>
      <point x="192" y="60"/>
      <point x="144" y="138"/>
      <point x="144" y="240" type="curve" smooth="yes"/>
      <point x="144" y="342"/>
      <point x="192" y="420"/>
      <point x="285" y="420" type="curve" smooth="yes"/>
      <point x="378" y="420"/>
      <point x="426" y="342"/>
      <point x="426" y="240" type="curve" smooth="yes"/>
      <point x="426" y="138"/>
      <point x="378" y="60"/>
    </contour>
  </outline>
</glyph>
<glyph name="p" format="1">
  <advance width="567"/>
  <unicode hex="0070"/>
  <outline>
    <contour>
      <point x="138" y="21" type="line"/>
      <point x="174" y="0"/>
      <point x="213" y="-9"/>
      <point x="261" y="-9" type="curve"/>
      <point x="429" y="-9"/>
      <point x="516" y="99"/>
      <point x="516" y="252" type="curve"/>
      <point x="516" y="381"/>
      <point x="432" y="486"/>
      <point x="294" y="486" type="curve"/>
      <point x="210" y="486"/>
      <point x="156" y="480"/>
      <point x="87" y="456" type="curve"/>
      <point x="156" y="393" type="line"/>
      <point x="192" y="410"/>
      <point x="223" y="414"/>
      <point x="264" y="414" type="curve"/>
      <point x="369" y="414"/>
      <point x="423" y="345"/>
      <point x="423" y="237" type="curve" smooth="yes"/>
      <point x="423" y="135"/>
      <point x="366" y="63"/>
      <point x="267" y="63" type="curve"/>
      <point x="216" y="63"/>
      <point x="180" y="72"/>
      <point x="138" y="102" type="curve"/>
    </contour>
    <contour>
      <point x="174" y="414" type="line"/>
      <point x="87" y="456" type="line"/>
      <point x="87" y="-228" type="line"/>
      <point x="174" y="-228" type="line"/>
    </contour>
  </outline>
</glyph>
<glyph name="q" format="1">
  <advance width="564"/>
  <unicode hex="0071"/>
  <outline>
    <contour>
      <point x="477" y="459" type="line"/>
      <point x="426" y="480"/>
      <point x="378" y="489"/>
      <point x="309" y="489" type="curve"/>
      <point x="153" y="489"/>
      <point x="51" y="381"/>
      <point x="51" y="225" type="curve"/>
      <point x="51" y="96"/>
      <point x="129" y="-6"/>
      <point x="261" y="-6" type="curve"/>
      <point x="336" y="-6"/>
      <point x="387" y="9"/>
      <point x="438" y="48" type="curve"/>
      <point x="438" y="123" type="line"/>
      <point x="396" y="84"/>
      <point x="351" y="66"/>
      <point x="291" y="66" type="curve"/>
      <point x="198" y="66"/>
      <point x="144" y="129"/>
      <point x="144" y="240" type="curve" smooth="yes"/>
      <point x="144" y="348"/>
      <point x="204" y="417"/>
      <point x="303" y="417" type="curve"/>
      <point x="342" y="417"/>
      <point x="372" y="411"/>
      <point x="405" y="396" type="curve"/>
    </contour>
    <contour>
      <point x="477" y="459" type="line"/>
      <point x="390" y="459" type="line"/>
      <point x="390" y="-228" type="line"/>
      <point x="477" y="-228" type="line"/>
    </contour>
  </outline>
</glyph>
<glyph name="r" format="1">
  <advance width="387"/>
  <unicode hex="0072"/>
  <outline>
    <contour>
      <point x="87" y="0" type="line"/>
      <point x="174" y="0" type="line"/>
      <point x="174" y="396" type="line"/>
      <point x="162" y="480" type="line"/>
      <point x="87" y="480" type="line"/>
    </contour>
    <contour>
      <point x="360" y="483" type="line"/>
      <point x="345" y="487"/>
      <point x="334" y="489"/>
      <point x="315" y="489" type="curve"/>
      <point x="234" y="489"/>
      <point x="177" y="450"/>
      <point x="114" y="333" type="curve"/>
      <point x="153" y="324" type="line"/>
      <point x="195" y="387"/>
      <point x="239" y="414"/>
      <point x="304" y="414" type="curve"/>
      <point x="329" y="414"/>
      <point x="342" y="413"/>
      <point x="360" y="411" type="curve"/>
    </contour>
  </outline>
</glyph>
<glyph name="s" format="1">
  <advance width="426"/>
  <unicode hex="0073"/>
  <outline>
    <contour>
      <point x="236" y="279" type="curve" smooth="yes"/>
      <point x="170" y="305"/>
      <point x="148" y="324"/>
      <point x="148" y="360" type="curve"/>
      <point x="148" y="396"/>
      <point x="183" y="418"/>
      <point x="243" y="418" type="curve"/>
      <point x="285" y="418"/>
      <point x="318" y="414"/>
      <point x="351" y="399" type="curve"/>
      <point x="351" y="471" type="line"/>
      <point x="314" y="486"/>
      <point x="279" y="489"/>
      <point x="240" y="489" type="curve"/>
      <point x="126" y="489"/>
      <point x="60" y="432"/>
      <point x="60" y="348" type="curve"/>
      <point x="60" y="270"/>
      <point x="129" y="237"/>
      <point x="202" y="207" type="curve" smooth="yes"/>
      <point x="262" y="182"/>
      <point x="281" y="162"/>
      <point x="281" y="123" type="curve"/>
      <point x="281" y="84"/>
      <point x="246" y="62"/>
      <point x="189" y="62" type="curve"/>
      <point x="138" y="62"/>
      <point x="99" y="72"/>
      <point x="60" y="93" type="curve"/>
      <point x="60" y="15" type="line"/>
      <point x="102" y="-3"/>
      <point x="141" y="-9"/>
      <point x="192" y="-9" type="curve"/>
      <point x="297" y="-9"/>
      <point x="375" y="45"/>
      <point x="375" y="135" type="curve"/>
      <point x="375" y="213"/>
      <point x="308" y="251"/>
    </contour>
  </outline>
</glyph>
<glyph name="t" format="1">
  <advance width="357"/>
  <unicode hex="0074"/>
  <outline>
    <contour>
      <point x="209" y="-6" type="curve"/>
      <point x="255" y="-6"/>
      <point x="288" y="-3"/>
      <point x="324" y="6" type="curve"/>
      <point x="324" y="81" type="line"/>
      <point x="298" y="71"/>
      <point x="274" y="66"/>
      <point x="246" y="66" type="curve"/>
      <point x="201" y="66"/>
      <point x="183" y="89"/>
      <point x="183" y="153" type="curve"/>
      <point x="183" y="594" type="line"/>
      <point x="96" y="594" type="line"/>
      <point x="96" y="132" type="line"/>
      <point x="96" y="39"/>
      <point x="134" y="-6"/>
    </contour>
    <contour>
      <point x="27" y="411" type="line"/>
      <point x="309" y="411" type="line"/>
      <point x="309" y="480" type="line"/>
      <point x="27" y="480" type="line"/>
    </contour>
  </outline>
</glyph>
<glyph name="u" format="1">
  <advance width="555"/>
  <unicode hex="0075"/>
  <outline>
    <contour>
      <point x="468" y="480" type="line"/>
      <point x="381" y="480" type="line"/>
      <point x="381" y="84" type="line"/>
      <point x="393" y="0" type="line"/>
      <point x="468" y="0" type="line"/>
    </contour>
    <contour>
      <point x="78" y="480" type="line"/>
      <point x="78" y="153" type="line"/>
      <point x="78" y="48"/>
      <point x="124" y="-6"/>
      <point x="222" y="-6" type="curve"/>
      <point x="300" y="-6"/>
      <point x="350" y="13"/>
      <point x="399" y="49" type="curve"/>
      <point x="399" y="138" type="line"/>
      <point x="360" y="90"/>
      <point x="316" y="66"/>
      <point x="248" y="66" type="curve"/>
      <point x="189" y="66"/>
      <point x="165" y="99"/>
      <point x="165" y="174" type="curve"/>
      <point x="165" y="480" type="line"/>
    </contour>
  </outline>
</glyph>
<glyph name="v" format="1">
  <advance width="513"/>
  <unicode hex="0076"/>
  <outline>
    <contour>
      <point x="213" y="0" type="line"/>
      <point x="293" y="0" type="line"/>
      <point x="116" y="480" type="line"/>
      <point x="21" y="480" type="line"/>
    </contour>
    <contour>
      <point x="297" y="0" type="line"/>
      <point x="492" y="480" type="line"/>
      <point x="397" y="480" type="line"/>
      <point x="220" y="0" type="line"/>
    </contour>
  </outline>
</glyph>
<glyph name="w" format="1">
  <advance width="804"/>
  <unicode hex="0077"/>
  <outline>
    <contour>
      <point x="180" y="0" type="line"/>
      <point x="258" y="0" type="line"/>
      <point x="117" y="480" type="line"/>
      <point x="24" y="480" type="line"/>
    </contour>
    <contour>
      <point x="525" y="0" type="line"/>
      <point x="606" y="0" type="line"/>
      <point x="432" y="480" type="line"/>
      <point x="372" y="480" type="line"/>
      <point x="375" y="392" type="line"/>
    </contour>
    <contour>
      <point x="618" y="0" type="line"/>
      <point x="780" y="480" type="line"/>
      <point x="690" y="480" type="line"/>
      <point x="543" y="0" type="line"/>
    </contour>
    <contour>
      <point x="267" y="0" type="line"/>
      <point x="423" y="415" type="line"/>
      <point x="417" y="480" type="line"/>
      <point x="366" y="480" type="line"/>
      <point x="195" y="0" type="line"/>
    </contour>
  </outline>
</glyph>
<glyph name="x" format="1">
  <advance width="489"/>
  <unicode hex="0078"/>
  <outline>
    <contour>
      <point x="275" y="222" type="line"/>
      <point x="456" y="480" type="line"/>
      <point x="364" y="480" type="line"/>
      <point x="227" y="285" type="line"/>
    </contour>
    <contour>
      <point x="116" y="0" type="line"/>
      <point x="271" y="222" type="line"/>
      <point x="223" y="285" type="line"/>
      <point x="24" y="0" type="line"/>
    </contour>
    <contour>
      <point x="281" y="267" type="line"/>
      <point x="140" y="480" type="line"/>
      <point x="42" y="480" type="line"/>
      <point x="219" y="212" type="line"/>
    </contour>
    <contour>
      <point x="364" y="0" type="line"/>
      <point x="465" y="0" type="line"/>
      <point x="286" y="267" type="line"/>
      <point x="224" y="212" type="line"/>
    </contour>
    <contour>
      <point x="229" y="222" type="line"/>
      <point x="276" y="222" type="line"/>
      <point x="276" y="269" type="line"/>
      <point x="229" y="269" type="line"/>
    </contour>
  </outline>
</glyph>
<glyph name="y" format="1">
  <advance width="525"/>
  <unicode hex="0079"/>
  <outline>
    <contour>
      <point x="229" y="-50" type="line"/>
      <point x="291" y="0" type="line"/>
      <point x="117" y="480" type="line"/>
      <point x="21" y="480" type="line"/>
    </contour>
    <contour>
      <point x="210" y="-228" type="line"/>
      <point x="504" y="480" type="line"/>
      <point x="414" y="480" type="line"/>
      <point x="120" y="-228" type="line"/>
    </contour>
  </outline>
</glyph>
<glyph name="z" format="1">
  <advance width="462"/>
  <unicode hex="007A"/>
  <outline>
    <contour>
      <point x="66" y="411" type="line"/>
      <point x="399" y="411" type="line"/>
      <point x="399" y="480" type="line"/>
      <point x="66" y="480" type="line"/>
    </contour>
    <contour>
      <point x="45" y="0" type="line"/>
      <point x="417" y="0" type="line"/>
      <point x="417" y="69" type="line"/>
      <point x="45" y="69" type="line"/>
    </contour>
    <contour>
      <point x="45" y="69" type="line"/>
      <point x="150" y="69" type="line"/>
      <point x="399" y="411" type="line"/>
      <point x="297" y="411" type="line"/>
    </contour>
  </outline>
</glyph>
<glyph name="endash" format="1">
  <advance width="558"/>
  <unicode hex="2013"/>
  <outline>
    <contour>
      <point x="69" y="225" type="line"/>
      <point x="489" y="225" type="line"/>
      <point x="489" y="300" type="line"/>
      <point x="69" y="300" type="line"/>
    </contour>
  </outline>
</glyph>
<glyph name="emdash" format="1">
  <advance width="852"/>
  <unicode hex="2014"/>
  <outline>
    <contour>
      <point x="69" y="225" type="line"/>
      <point x="783" y="225" type="line"/>
      <point x="783" y="300" type="line"/>
      <point x="69" y="300" type="line"/>
    </contour>
  </outline>
</glyph>
<glyph name="quoteleft" format="1">
  <advance width="237"/>
  <unicode hex="2018"/>
  <outline>
    <contour>
      <point x="183" y="480" type="line"/>
      <point x="105" y="720" type="line"/>
      <point x="0" y="720" type="line"/>
      <point x="114" y="480" type="line"/>
    </contour>
  </outline>
</glyph>
<glyph name="quoteright" format="1">
  <advance width="237"/>
  <unicode hex="2019"/>
  <outline>
    <contour>
      <point x="54" y="480" type="line"/>
      <point x="123" y="480" type="line"/>
      <point x="237" y="720" type="line"/>
      <point x="132" y="720" type="line"/>
    </contour>
  </outline>
</glyph>
<glyph name="quotedblleft" format="1">
  <advance width="417"/>
  <unicode hex="201C"/>
  <outline>
    <contour>
      <point x="183" y="480" type="line"/>
      <point x="105" y="720" type="line"/>
      <point x="0" y="720" type="line"/>
      <point x="114" y="480" type="line"/>
    </contour>
    <contour>
      <point x="363" y="480" type="line"/>
      <point x="285" y="720" type="line"/>
      <point x="180" y="720" type="line"/>
      <point x="294" y="480" type="line"/>
    </contour>
  </outline>
</glyph>
<glyph name="quotedblright" format="1">
  <advance width="417"/>
  <unicode hex="201D"/>
  <outline>
    <contour>
      <point x="54" y="480" type="line"/>
      <point x="123" y="480" type="line"/>
      <point x="237" y="720" type="line"/>
      <point x="132" y="720" type="line"/>
    </contour>
    <contour>
      <point x="234" y="480" type="line"/>
      <point x="303" y="480" type="line"/>
      <point x="417" y="720" type="line"/>
      <point x="312" y="720" type="line"/>
    </contour>
  </outline>
</glyph>
